<svg xmlns="http://www.w3.org/2000/svg" xmlns:xlink="http://www.w3.org/1999/xlink" width="512" height="512" viewBox="0 0 512 512">
  <defs>
    <linearGradient id="icon-b" x1="50%" x2="50%" y1="0%" y2="100%">
      <stop offset="0%" stop-color="#909090"/>
      <stop offset="100%" stop-color="#282828"/>
    </linearGradient>
    <rect id="icon-a" width="510" height="510" x="1" y="1" rx="115"/>
    <linearGradient id="icon-d" x1="50%" x2="50%" y1="5.891%" y2="100%">
      <stop offset="0%" stop-color="#D8AC13"/>
      <stop offset="100%" stop-color="#D88707"/>
    </linearGradient>
    <path id="icon-f" d="M85.7343871,105.907184 L42.8671935,139.528512 L0,105.907184 L0,3.36213283 L85.7343871,3.36213283 L85.7343871,105.907184 Z"/>
    <filter id="icon-e" width="144.3%" height="127.9%" x="-22.2%" y="-12.5%" filterUnits="objectBoundingBox">
      <feOffset dy="2" in="SourceAlpha" result="shadowOffsetOuter1"/>
      <feGaussianBlur in="shadowOffsetOuter1" result="shadowBlurOuter1" stdDeviation="6"/>
      <feColorMatrix in="shadowBlurOuter1" values="0 0 0 0 0   0 0 0 0 0   0 0 0 0 0  0 0 0 0.400928442 0"/>
    </filter>
  </defs>
  <g fill="none" fill-rule="evenodd">
    <mask id="icon-c" fill="#fff">
      <use xlink:href="#icon-a"/>
    </mask>
    <use fill="url(#icon-b)" xlink:href="#icon-a"/>
    <g mask="url(#icon-c)">
      <g transform="translate(-46 194)">
        <polygon fill="url(#icon-d)" stroke="#FFF" stroke-width="16.811" points="0 376.467 0 132.735 190.235 16.78 326.478 152.268 445.827 54.57 602.978 297.74 602.978 376.467"/>
        <ellipse cx="191.061" cy="25.171" fill="#FFF" rx="25.213" ry="25.171"/>
        <ellipse cx="328.894" cy="147.108" fill="#FFF" rx="25.213" ry="25.171"/>
        <ellipse cx="447.677" cy="63.206" fill="#FFF" rx="25.213" ry="25.171"/>
      </g>
    </g>
    <g mask="url(#icon-c)">
      <g transform="translate(240 111)">
        <use fill="#000" filter="url(#icon-e)" xlink:href="#icon-f"/>
        <use fill="#FFF" xlink:href="#icon-f"/>
        <text font-family="Arial-Black, Arial Black" font-size="84.053" font-weight="700">
          <tspan x="12.314" y="93" fill="#D88707">€</tspan>
        </text>
      </g>
    </g>
  </g>
</svg>
