<svg xmlns="http://www.w3.org/2000/svg" xmlns:xlink="http://www.w3.org/1999/xlink" width="512" height="512" viewBox="0 0 512 512">
  <defs>
    <linearGradient id="icon-b" x1="50%" x2="50%" y1="0%" y2="100%">
      <stop offset="0%" stop-color="#909090"/>
      <stop offset="100%" stop-color="#282828"/>
    </linearGradient>
    <rect id="icon-a" width="424" height="424" x="44" y="44" rx="95"/>
    <linearGradient id="icon-d" x1="50%" x2="50%" y1="5.891%" y2="100%">
      <stop offset="0%" stop-color="#D8AC13"/>
      <stop offset="100%" stop-color="#D88707"/>
    </linearGradient>
    <path id="icon-f" d="M71.5695753,88.4094753 L35.7847876,116.475975 L0,88.4094753 L0,2.80665001 L71.5695753,2.80665001 L71.5695753,88.4094753 Z"/>
    <filter id="icon-e" width="144.7%" height="128.2%" x="-22.4%" y="-12.3%" filterUnits="objectBoundingBox">
      <feOffset dy="2" in="SourceAlpha" result="shadowOffsetOuter1"/>
      <feGaussianBlur in="shadowOffsetOuter1" result="shadowBlurOuter1" stdDeviation="5"/>
      <feColorMatrix in="shadowBlurOuter1" values="0 0 0 0 0   0 0 0 0 0   0 0 0 0 0  0 0 0 0.400928442 0"/>
    </filter>
  </defs>
  <g fill="none" fill-rule="evenodd">
    <mask id="icon-c" fill="#fff">
      <use xlink:href="#icon-a"/>
    </mask>
    <use fill="url(#icon-b)" xlink:href="#icon-a"/>
    <g mask="url(#icon-c)">
      <g transform="translate(4 209)">
        <polygon fill="url(#icon-d)" stroke="#FFF" stroke-width="14.033" points="0 314.554 0 110.906 158.739 14.021 272.425 127.227 372.014 45.596 503.147 248.775 503.147 314.554"/>
        <ellipse cx="159.429" cy="21.031" fill="#FFF" rx="21.039" ry="21.031"/>
        <ellipse cx="274.442" cy="122.915" fill="#FFF" rx="21.039" ry="21.031"/>
        <ellipse cx="373.558" cy="52.812" fill="#FFF" rx="21.039" ry="21.031"/>
      </g>
    </g>
    <g mask="url(#icon-c)">
      <g transform="translate(243 139)">
        <use fill="#000" filter="url(#icon-e)" xlink:href="#icon-f"/>
        <use fill="#FFF" xlink:href="#icon-f"/>
        <text font-family="Arial-Black, Arial Black" font-size="70.166" font-weight="700">
          <tspan x="10.28" y="77" fill="#D88707">€</tspan>
        </text>
      </g>
    </g>
  </g>
</svg>
