<?xml version="1.0" standalone="no"?>
<!DOCTYPE svg PUBLIC "-//W3C//DTD SVG 20010904//EN"
 "http://www.w3.org/TR/2001/REC-SVG-20010904/DTD/svg10.dtd">
<svg version="1.0" xmlns="http://www.w3.org/2000/svg"
 width="1024.000000pt" height="1024.000000pt" viewBox="0 0 1024.000000 1024.000000"
 preserveAspectRatio="xMidYMid meet">
<metadata>
Created by potrace 1.11, written by Peter Selinger 2001-2013
</metadata>
<g transform="translate(0.000000,1024.000000) scale(0.100000,-0.100000)"
fill="#000000" stroke="none">
<path d="M2048 9333 c12 -2 30 -2 40 0 9 3 -1 5 -23 4 -22 0 -30 -2 -17 -4z"/>
<path d="M8118 9333 c12 -2 30 -2 40 0 9 3 -1 5 -23 4 -22 0 -30 -2 -17 -4z"/>
<path d="M1908 9323 c7 -3 16 -2 19 1 4 3 -2 6 -13 5 -11 0 -14 -3 -6 -6z"/>
<path d="M8278 9323 c7 -3 16 -2 19 1 4 3 -2 6 -13 5 -11 0 -14 -3 -6 -6z"/>
<path d="M1960 9049 c-173 -16 -263 -40 -381 -100 -231 -120 -367 -319 -420
-619 -9 -47 -13 -464 -16 -1467 -2 -772 -2 -1403 0 -1403 3 0 319 192 702 426
384 234 704 428 711 431 8 3 18 -15 28 -49 24 -81 32 -84 28 -11 -25 383 423
605 699 347 93 -87 130 -177 130 -312 l0 -84 772 -767 771 -767 -26 -35 c-38
-51 -67 -112 -82 -177 l-14 -57 -783 783 -784 782 -66 -35 c-173 -91 -364 -62
-500 76 l-57 57 -766 -466 -765 -467 -1 -1536 c0 -998 4 -1574 10 -1645 26
-264 103 -440 255 -582 118 -111 249 -174 436 -209 89 -17 264 -18 3259 -18
2995 0 3170 1 3259 18 187 35 318 98 436 209 109 102 186 235 224 390 32 130
41 274 41 669 l0 365 -797 1237 c-695 1078 -801 1236 -818 1231 -11 -3 -61 -8
-111 -11 -129 -7 -214 22 -306 105 l-37 34 -438 -359 c-241 -197 -509 -417
-596 -488 -87 -72 -162 -131 -167 -133 -6 -2 -10 8 -10 22 0 37 -37 129 -74
185 l-33 48 584 479 c321 264 589 480 596 482 7 1 19 -14 27 -34 15 -37 15
-37 16 57 3 151 57 265 166 345 82 60 143 79 253 79 70 -1 103 -6 148 -24 108
-43 196 -132 240 -245 31 -79 29 -212 -4 -293 l-26 -61 689 -1069 c380 -587
692 -1070 694 -1072 3 -3 3 1111 1 2475 -3 1844 -7 2496 -15 2544 -23 123 -42
185 -86 275 -120 244 -316 380 -626 437 -77 13 -6227 21 -6370 7z m4070 -2341
l0 -853 -355 -278 c-196 -153 -359 -277 -364 -275 -4 2 -166 127 -359 278
l-352 275 0 853 0 852 715 0 715 0 0 -852z m-618 -2039 c320 -67 442 -456 217
-694 -195 -206 -542 -157 -669 95 -121 240 4 525 259 592 79 20 122 22 193 7z"/>
<path d="M5263 7086 c-150 -37 -265 -141 -309 -281 -17 -54 -18 -55 -55 -55
-37 0 -39 -1 -54 -52 -22 -76 -21 -78 30 -78 45 0 45 0 45 -35 0 -34 -1 -35
-38 -35 -39 0 -39 0 -55 -60 -10 -33 -17 -62 -17 -65 0 -3 29 -5 65 -5 57 0
65 -2 65 -19 0 -43 71 -160 132 -216 71 -66 124 -92 228 -111 141 -25 263 -13
360 36 l40 20 0 130 c0 72 -2 130 -5 130 -3 0 -22 -11 -43 -24 -65 -43 -159
-68 -234 -64 -75 4 -107 21 -146 79 l-23 34 104 3 105 3 14 62 13 62 -127 3
-128 3 0 34 0 34 122 3 122 3 13 50 c20 78 26 74 -108 77 l-120 3 23 35 c60
90 207 97 315 15 l32 -25 10 37 c48 183 54 215 40 224 -8 5 -49 20 -92 34 -89
28 -231 33 -324 11z"/>
<path d="M1184 9008 l-19 -23 23 19 c21 18 27 26 19 26 -2 0 -12 -10 -23 -22z"/>
<path d="M9005 9010 c10 -11 20 -20 23 -20 3 0 -3 9 -13 20 -10 11 -20 20 -23
20 -3 0 3 -9 13 -20z"/>
<path d="M891 8434 c0 -11 3 -14 6 -6 3 7 2 16 -1 19 -3 4 -6 -2 -5 -13z"/>
<path d="M9301 8434 c0 -11 3 -14 6 -6 3 7 2 16 -1 19 -3 4 -6 -2 -5 -13z"/>
<path d="M881 8374 c0 -11 3 -14 6 -6 3 7 2 16 -1 19 -3 4 -6 -2 -5 -13z"/>
<path d="M9311 8374 c0 -11 3 -14 6 -6 3 7 2 16 -1 19 -3 4 -6 -2 -5 -13z"/>
<path d="M872 8285 c0 -16 2 -22 5 -12 2 9 2 23 0 30 -3 6 -5 -1 -5 -18z"/>
<path d="M9322 8285 c0 -16 2 -22 5 -12 2 9 2 23 0 30 -3 6 -5 -1 -5 -18z"/>
<path d="M863 8130 c0 -30 2 -43 4 -27 2 15 2 39 0 55 -2 15 -4 2 -4 -28z"/>
<path d="M9333 8130 c0 -30 2 -43 4 -27 2 15 2 39 0 55 -2 15 -4 2 -4 -28z"/>
<path d="M9333 2090 c0 -41 2 -58 4 -37 2 20 2 54 0 75 -2 20 -4 3 -4 -38z"/>
<path d="M863 2085 c0 -38 2 -53 4 -32 2 20 2 52 0 70 -2 17 -4 1 -4 -38z"/>
<path d="M873 1925 c0 -22 2 -30 4 -17 2 12 2 30 0 40 -3 9 -5 -1 -4 -23z"/>
<path d="M9323 1925 c0 -22 2 -30 4 -17 2 12 2 30 0 40 -3 9 -5 -1 -4 -23z"/>
<path d="M882 1835 c0 -16 2 -22 5 -12 2 9 2 23 0 30 -3 6 -5 -1 -5 -18z"/>
<path d="M9312 1835 c0 -16 2 -22 5 -12 2 9 2 23 0 30 -3 6 -5 -1 -5 -18z"/>
<path d="M892 1770 c0 -14 2 -19 5 -12 2 6 2 18 0 25 -3 6 -5 1 -5 -13z"/>
<path d="M9302 1770 c0 -14 2 -19 5 -12 2 6 2 18 0 25 -3 6 -5 1 -5 -13z"/>
<path d="M1020 1410 c6 -11 13 -20 16 -20 2 0 0 9 -6 20 -6 11 -13 20 -16 20
-2 0 0 -9 6 -20z"/>
<path d="M9170 1410 c-6 -11 -8 -20 -6 -20 3 0 10 9 16 20 6 11 8 20 6 20 -3
0 -10 -9 -16 -20z"/>
<path d="M1110 1276 c0 -2 8 -10 18 -17 15 -13 16 -12 3 4 -13 16 -21 21 -21
13z"/>
<path d="M9069 1263 c-13 -16 -12 -17 4 -4 9 7 17 15 17 17 0 8 -8 3 -21 -13z"/>
<path d="M1160 1217 c0 -2 15 -16 33 -33 l32 -29 -29 33 c-28 30 -36 37 -36
29z"/>
<path d="M9004 1188 l-29 -33 33 29 c17 17 32 31 32 33 0 8 -8 1 -36 -29z"/>
<path d="M1250 1136 c0 -2 8 -10 18 -17 15 -13 16 -12 3 4 -13 16 -21 21 -21
13z"/>
<path d="M8929 1123 c-13 -16 -12 -17 4 -4 9 7 17 15 17 17 0 8 -8 3 -21 -13z"/>
<path d="M1290 1106 c0 -2 8 -10 18 -17 15 -13 16 -12 3 4 -13 16 -21 21 -21
13z"/>
<path d="M1390 1036 c0 -3 9 -10 20 -16 11 -6 20 -8 20 -6 0 3 -9 10 -20 16
-11 6 -20 8 -20 6z"/>
<path d="M8784 1024 c-18 -14 -18 -15 4 -4 12 6 22 13 22 15 0 8 -5 6 -26 -11z"/>
<path d="M1510 970 c8 -5 20 -10 25 -10 6 0 3 5 -5 10 -8 5 -19 10 -25 10 -5
0 -3 -5 5 -10z"/>
<path d="M1668 913 c7 -3 16 -2 19 1 4 3 -2 6 -13 5 -11 0 -14 -3 -6 -6z"/>
<path d="M8518 913 c7 -3 16 -2 19 1 4 3 -2 6 -13 5 -11 0 -14 -3 -6 -6z"/>
<path d="M1708 903 c6 -2 18 -2 25 0 6 3 1 5 -13 5 -14 0 -19 -2 -12 -5z"/>
<path d="M8468 903 c6 -2 18 -2 25 0 6 3 1 5 -13 5 -14 0 -19 -2 -12 -5z"/>
<path d="M1758 893 c6 -2 18 -2 25 0 6 3 1 5 -13 5 -14 0 -19 -2 -12 -5z"/>
<path d="M8418 893 c6 -2 18 -2 25 0 6 3 1 5 -13 5 -14 0 -19 -2 -12 -5z"/>
<path d="M1823 883 c9 -2 23 -2 30 0 6 3 -1 5 -18 5 -16 0 -22 -2 -12 -5z"/>
<path d="M8353 883 c9 -2 23 -2 30 0 6 3 -1 5 -18 5 -16 0 -22 -2 -12 -5z"/>
<path d="M1908 873 c12 -2 32 -2 45 0 12 2 2 4 -23 4 -25 0 -35 -2 -22 -4z"/>
<path d="M8248 873 c12 -2 32 -2 45 0 12 2 2 4 -23 4 -25 0 -35 -2 -22 -4z"/>
<path d="M2058 863 c29 -2 74 -2 100 0 26 2 2 3 -53 3 -55 0 -76 -1 -47 -3z"/>
<path d="M8048 863 c29 -2 74 -2 100 0 26 2 2 3 -53 3 -55 0 -76 -1 -47 -3z"/>
</g>
</svg>
